<svg width="63" height="51" viewBox="0 0 63 51" fill="none" xmlns="http://www.w3.org/2000/svg">
<g clip-path="url(#clip0_396_226)">
<path d="M34.327 15.114C33.9862 17.1734 33.6455 19.2337 33.3047 21.2932C33.6228 21.5764 34.0551 21.993 34.5126 22.5473C35.1994 23.3796 35.8408 24.1535 36.0918 25.242C36.2836 26.0717 36.165 26.7219 35.9681 27.7433C35.6378 29.455 35.0547 30.6786 34.9562 30.8878C34.2712 32.3502 32.8541 36.3993 33.5836 40.2018C34.3767 44.3424 37.3451 47.0154 38.9731 48.0995C38.9731 48.0995 40.7405 49.5419 43.8048 50.4692C43.9791 50.5224 44.7722 50.7516 45.6629 50.5154C45.9706 50.4344 46.4273 50.3063 46.592 49.9114C46.7 49.6535 46.6329 49.3911 46.592 49.2613C45.8172 46.787 43.6654 43.7794 43.6654 43.7794C43.0867 42.9715 41.4169 40.6367 41.0168 37.6465C40.805 36.0646 41.0203 34.8288 41.4352 32.4426C41.9485 29.4916 42.4357 29.1787 42.5498 27.0531C42.6021 26.0883 42.6788 24.3723 41.9921 22.3146C41.1659 19.8368 39.7226 18.3308 39.3906 17.9936C37.4932 16.0718 35.3536 15.3737 34.3261 15.1132L34.327 15.114Z" fill="url(#paint0_linear_396_226)" stroke="black" stroke-width="0.261458" stroke-miterlimit="10"/>
<path d="M36.8047 16.1755V16.4884C37.3023 16.8597 37.9385 17.3809 38.6114 18.0737C39.116 18.5932 39.9596 19.4716 40.7013 20.7789C41.0081 21.3193 41.9676 23.1138 42.1855 25.6647C42.3197 27.2352 42.1288 28.5791 41.8918 29.5779C42.1689 28.7194 42.4914 27.3816 42.4478 25.7318C42.4173 24.5954 42.1933 22.5281 40.9444 20.3501C39.5761 17.9622 37.7015 16.7011 36.8047 16.1755Z" fill="#90857A"/>
<path d="M34.3828 16.7917C35.1742 17.4846 35.9655 18.1775 36.7568 18.8712C36.803 18.9061 36.932 18.9932 37.1177 18.9985C37.3512 19.0054 37.5098 18.8773 37.5482 18.8442C38.0023 18.4215 38.4572 17.9997 38.9113 17.577" stroke="black" stroke-width="0.261458" stroke-miterlimit="10"/>
<path d="M40.8281 37.7276C40.9005 39.6205 41.3702 40.9679 41.7729 41.8359C42.5973 43.6112 43.5656 44.2875 45.0219 46.7452C45.666 47.832 46.1061 48.7637 46.3702 49.3581C46.1375 48.6574 45.7278 47.5558 45.0507 46.2868C43.9316 44.1908 43.0801 43.5101 42.1589 41.7061C41.7232 40.8528 41.1628 39.5342 40.8281 37.7267V37.7276Z" fill="#90857A"/>
<path d="M36.8672 18.926C37.5043 19.428 38.2224 20.161 38.7235 21.1946C38.7959 21.3428 38.8595 21.4892 38.9153 21.6339C38.9222 21.6556 38.985 21.8308 39.1706 21.8944C39.3197 21.9459 39.4469 21.891 39.4757 21.8779C39.7336 21.7742 40.0186 21.6426 40.3176 21.4735C40.7158 21.2495 41.0488 21.0116 41.3181 20.792" stroke="black" stroke-width="0.261458" stroke-miterlimit="10"/>
<path d="M39.1719 21.8945C39.368 22.298 39.5771 22.8288 39.7148 23.4702C39.8072 23.8999 39.8473 24.293 39.8613 24.6303C39.8578 24.6555 39.836 24.8464 39.9789 24.9972C40.1367 25.1636 40.3563 25.1323 40.3755 25.1296C40.6718 25.0861 41.0091 25.0172 41.3734 24.9091C41.7751 24.7906 42.1237 24.6503 42.4157 24.5126" stroke="black" stroke-width="0.261458" stroke-miterlimit="10"/>
<path d="M40.0346 25.0267C40.1392 25.8442 40.0808 26.4787 40.0085 26.9049C39.8995 27.5481 39.7975 27.8531 39.7296 28.1084C39.6389 28.4501 39.5553 28.7325 39.4951 28.9303C39.4873 28.9538 39.4402 29.1124 39.5352 29.2667C39.6442 29.4436 39.8437 29.4576 39.862 29.4593C40.1706 29.5194 40.5253 29.5691 40.9192 29.5918C41.3881 29.6179 41.809 29.5996 42.1672 29.5622" stroke="black" stroke-width="0.261458" stroke-miterlimit="10"/>
<path d="M39.5298 29.2667C39.4575 29.8428 39.3372 30.5025 39.1368 31.2172C38.9755 31.7907 38.7899 32.3049 38.6016 32.7546C38.5825 32.7973 38.504 32.9855 38.5781 33.2078C38.6443 33.4039 38.7881 33.5041 38.8317 33.5328C39.0784 33.6444 39.4383 33.7734 39.888 33.8274C40.451 33.8945 40.9155 33.8143 41.2075 33.7394" stroke="black" stroke-width="0.261458" stroke-miterlimit="10"/>
<path d="M38.6272 33.3638C38.425 34.0279 38.2341 34.8419 38.1348 35.7814C38.059 36.4969 38.0502 37.1479 38.0746 37.7127C38.0729 37.751 38.0651 38.0107 38.269 38.1981C38.4145 38.3323 38.5827 38.3524 38.6376 38.3559C38.9235 38.3716 39.2808 38.3646 39.6835 38.2957C40.2683 38.1946 40.7319 37.9994 41.0518 37.833" stroke="black" stroke-width="0.261458" stroke-miterlimit="10"/>
<path d="M38.3438 38.2966C38.5006 38.9093 38.7019 39.5769 38.9634 40.2846C39.2423 41.0411 39.5447 41.7191 39.8436 42.3161C39.875 42.3736 39.9587 42.5087 40.126 42.5985C40.3456 42.717 40.5574 42.6769 40.6149 42.6638C40.8598 42.6098 41.1989 42.5052 41.5606 42.2943C42.0442 42.0119 42.3536 41.6651 42.5279 41.4359" stroke="black" stroke-width="0.261458" stroke-miterlimit="10"/>
<path d="M40.2969 42.6891C40.6455 43.3767 41.0934 44.1463 41.6721 44.9463C42.0791 45.5093 42.4888 46.0035 42.8801 46.4332C42.9559 46.516 43.125 46.6345 43.3446 46.6467C43.5268 46.6571 43.6688 46.5839 43.7438 46.5447C43.959 46.4314 44.0462 46.285 44.2266 46.0619C44.3408 45.9207 44.509 45.729 44.739 45.5154" stroke="black" stroke-width="0.261458" stroke-miterlimit="10"/>
<path d="M43.2656 46.6432C44.0448 47.1757 44.4753 47.6768 44.7263 48.0498C44.986 48.4359 45.3372 48.7662 45.5377 49.1863C45.563 49.2386 45.6632 49.4547 45.8837 49.6081C46.0284 49.7092 46.1521 49.7319 46.187 49.738C46.3595 49.7667 46.4999 49.7214 46.5661 49.6944" stroke="black" stroke-width="0.261458" stroke-miterlimit="10"/>
<path d="M33.8328 35.6428C33.7535 36.7749 33.7683 38.5729 34.4193 40.6323C35.4007 43.7341 37.2492 45.6035 37.9996 46.3452C39.7539 48.0786 41.5388 48.9536 42.4217 49.3781C43.3411 49.8199 44.1517 50.1093 44.7495 50.2975C43.356 50.0265 40.9584 49.3545 38.6253 47.5191C36.6966 46.0018 35.6691 44.3633 35.358 43.8413C34.9728 43.1963 34.2285 41.9222 33.8511 40.0649C33.4685 38.1798 33.648 36.598 33.8319 35.6428H33.8328Z" fill="#90857A"/>
<path d="M10.7656 16.3019C11.4411 15.0294 12.1156 13.757 12.7911 12.4846C12.6969 12.4088 12.5496 12.2684 12.4686 12.0506C12.3657 11.7743 12.4233 11.5198 12.4686 11.349C12.6839 10.5437 13.1301 9.79506 13.2861 9.53447C13.6277 8.96711 13.9101 8.50868 14.0957 8.20801C14.2177 8.27512 14.3389 8.34309 14.4609 8.4102C14.1602 8.91046 13.863 9.42989 13.5711 9.96936C13.4918 10.1149 13.4151 10.2596 13.3384 10.4043C13.246 10.6064 13.2634 10.8025 13.348 10.8592C13.443 10.9219 13.6765 10.8435 13.8264 10.5925C14.2012 9.86565 14.5759 9.13793 14.9507 8.41107C15.0579 8.46337 15.166 8.51479 15.2732 8.56708C14.9245 9.31659 14.5759 10.0661 14.2273 10.8156C14.1332 10.9925 14.1733 11.1756 14.2604 11.2278C14.3563 11.2845 14.5655 11.2183 14.6613 11.0056C14.9472 10.3119 15.2331 9.61814 15.5181 8.9244C15.6183 8.95752 15.7185 8.99151 15.8187 9.02463C15.7455 9.23379 15.2566 10.6291 14.7389 11.8963C14.6666 12.0741 14.5106 12.4428 14.1489 12.6868C14.0513 12.7521 13.8282 12.8986 13.5144 12.8986C13.3453 12.8986 13.2103 12.855 13.1248 12.821C12.5531 14.1082 11.9823 15.3955 11.4106 16.6827" fill="#99A2A3"/>
<path d="M10.7656 16.3019C11.4411 15.0294 12.1156 13.757 12.7911 12.4846C12.6969 12.4088 12.5496 12.2684 12.4686 12.0506C12.3657 11.7743 12.4233 11.5198 12.4686 11.349C12.6839 10.5437 13.1301 9.79506 13.2861 9.53447C13.6277 8.96711 13.9101 8.50868 14.0957 8.20801C14.2177 8.27512 14.3389 8.34309 14.4609 8.4102C14.1602 8.91046 13.863 9.42989 13.5711 9.96936C13.4918 10.1149 13.4151 10.2596 13.3384 10.4043C13.246 10.6064 13.2634 10.8025 13.348 10.8592C13.443 10.9219 13.6765 10.8435 13.8264 10.5925C14.2012 9.86565 14.5759 9.13793 14.9507 8.41107C15.0579 8.46337 15.166 8.51479 15.2732 8.56708C14.9245 9.31659 14.5759 10.0661 14.2273 10.8156C14.1332 10.9925 14.1733 11.1756 14.2604 11.2278C14.3563 11.2845 14.5655 11.2183 14.6613 11.0056C14.9472 10.3119 15.2331 9.61814 15.5181 8.9244C15.6183 8.95752 15.7185 8.99151 15.8187 9.02463C15.7455 9.23379 15.2566 10.6291 14.7389 11.8963C14.6666 12.0741 14.5106 12.4428 14.1489 12.6868C14.0513 12.7521 13.8282 12.8986 13.5144 12.8986C13.3453 12.8986 13.2103 12.855 13.1248 12.821C12.5531 14.1082 11.9823 15.3955 11.4106 16.6827" stroke="#30403E" stroke-width="0.261458" stroke-miterlimit="10"/>
<path d="M12.6066 11.3559C12.8193 11.4344 13.1173 11.5172 13.479 11.5329C14.1083 11.5608 14.5989 11.3734 14.8569 11.2505L14.6129 11.8719C14.2808 11.8231 13.8128 11.7969 13.2742 11.9085C13.0311 11.959 12.8175 12.0288 12.6363 12.1011C12.6014 12.0314 12.55 11.9076 12.5404 11.7446C12.5308 11.5677 12.5753 11.4292 12.6058 11.3559H12.6066Z" fill="#C2C6C7"/>
<path d="M12.8317 17.0513C12.9494 17.3119 13.0086 17.4427 13.0104 17.4496C13.1855 17.908 12.6251 18.3168 12.3602 19.2197C12.1432 19.9596 12.2757 20.513 12.0003 20.6037C11.8669 20.6473 11.7257 20.5531 11.6691 20.5157C11.1 20.1357 11.066 18.9556 11.3684 18.0736C11.6743 17.1821 12.3602 16.4901 12.5929 16.5877C12.626 16.6016 12.6391 16.6269 12.8308 17.0522L12.8317 17.0513Z" fill="url(#paint1_linear_396_226)" stroke="black" stroke-width="0.261458" stroke-miterlimit="10"/>
<path d="M21.9498 14.2659C21.1202 14.0533 20.0787 13.8607 18.8716 13.8058C17.8676 13.7605 16.976 13.8206 16.2309 13.9173C16.162 13.8764 16.0566 13.8302 15.9415 13.8502C15.7751 13.8799 15.6897 14.0306 15.5738 14.1622C15.3768 14.3871 15.1973 14.4368 14.9611 14.5745C14.6796 14.7383 13.9379 15.2473 12.0641 16.6356C11.8523 16.4352 11.6501 16.3105 11.5072 16.2347C11.38 16.1676 10.7995 15.8748 10.1145 15.9898C9.84783 16.0343 9.75371 16.1092 9.70229 16.1685C9.5123 16.3829 9.58638 16.708 9.60206 16.7698C9.55151 16.7908 9.25345 16.9232 9.13405 17.2596C9.04429 17.5141 9.10965 17.7355 9.13405 17.8052C9.04951 17.8584 8.77498 18.044 8.74448 18.3403C8.73402 18.4414 8.74535 18.6192 9.0896 19.0088C9.38244 19.34 9.87659 19.8995 10.6714 20.0006C10.9207 20.032 11.1665 20.0633 11.3512 19.9117C11.5996 19.7078 11.6397 19.2528 11.4514 18.7639C11.4785 18.7621 11.7887 18.7421 11.9526 18.4745C12.0807 18.2662 12.0676 17.9926 11.9195 17.7834C11.9752 17.7878 12.1408 17.793 12.2759 17.6832C12.4528 17.5394 12.506 17.2553 12.3875 16.9921C12.3936 16.9807 12.4406 16.8901 12.5435 16.8692C12.6306 16.8518 12.7239 16.891 12.777 16.9694C13.2973 16.4944 13.7706 16.2068 14.1026 16.0334C14.6813 15.731 15.023 15.6743 15.5511 15.3205C15.986 15.0285 16.2841 14.7113 16.4645 14.496C17.2645 14.4725 18.1665 14.4899 19.1496 14.5849C20.3035 14.6965 21.3319 14.8908 22.213 15.1087C22.125 14.8272 22.037 14.5466 21.949 14.2651L21.9498 14.2659Z" fill="url(#paint2_linear_396_226)" stroke="black" stroke-width="0.261458" stroke-miterlimit="10"/>
<path d="M11.4652 18.919C11.0338 18.5338 10.5213 18.227 9.96094 18.0275C10.5449 18.1434 11.114 18.3743 11.6247 18.7116L11.4661 18.919H11.4652Z" fill="black"/>
<path d="M11.9257 17.9412C11.5091 17.4758 10.94 17.1307 10.3047 16.9843C10.9522 17.0444 11.5928 17.3137 12.107 17.7538L11.9249 17.9421L11.9257 17.9412Z" fill="black"/>
<path d="M9.46678 19.0123C8.95781 19.7348 8.44273 20.5933 7.99041 21.5955C7.85358 21.8997 7.7307 22.1978 7.62176 22.4871C7.42043 22.9778 7.60868 23.4972 7.94945 23.6759C8.35558 23.8894 9.02317 23.6462 9.22101 23.0196C9.45981 22.4165 9.69599 21.7942 9.92869 21.1537C10.1274 20.6046 10.3156 20.0651 10.4926 19.5344" fill="#99A2A3"/>
<path d="M9.46678 19.0123C8.95781 19.7348 8.44273 20.5933 7.99041 21.5955C7.85358 21.8997 7.7307 22.1978 7.62176 22.4871C7.42043 22.9778 7.60868 23.4972 7.94945 23.6759C8.35558 23.8894 9.02317 23.6462 9.22101 23.0196C9.45981 22.4165 9.69599 21.7942 9.92869 21.1537C10.1274 20.6046 10.3156 20.0651 10.4926 19.5344" stroke="#30403E" stroke-width="0.261458" stroke-miterlimit="10"/>
<path d="M10.4563 20.0739C10.5042 19.9388 10.5138 19.7993 10.4632 19.6808C10.4223 19.5745 10.2715 19.4769 10.1312 19.388C9.98825 19.2973 9.8366 19.2154 9.6867 19.1335L9.23438 18.886C9.62308 19.028 10.0876 19.1553 10.4545 19.3462C10.7447 19.4743 10.8598 19.8691 10.7953 20.1549L10.4563 20.0739Z" fill="black"/>
<path d="M23.089 13.7501C21.6789 12.6276 19.8478 10.7869 18.6948 8.05467C17.6141 5.49238 17.4407 2.88478 18.1614 1.54786C18.2965 1.29773 18.6556 0.631881 19.399 0.332076C19.5472 0.271941 20.0945 0.0514449 20.6148 0.268455C21.1394 0.487208 21.3808 1.04498 21.5107 1.39882C21.9508 2.59979 23.0882 6.85458 24.4756 12.6197" fill="#D9ECF9"/>
<path d="M23.089 13.7501C21.6789 12.6276 19.8478 10.7869 18.6948 8.05467C17.6141 5.49238 17.4407 2.88478 18.1614 1.54786C18.2965 1.29773 18.6556 0.631881 19.399 0.332076C19.5472 0.271941 20.0945 0.0514449 20.6148 0.268455C21.1394 0.487208 21.3808 1.04498 21.5107 1.39882C21.9508 2.59979 23.0882 6.85458 24.4756 12.6197" stroke="#31454A" stroke-width="0.34861" stroke-miterlimit="10"/>
<path d="M20.1953 0.26416C20.5605 2.52316 21.1862 5.18741 22.2748 8.07129C22.8979 9.72283 23.5821 11.2044 24.2662 12.5126" stroke="#31454A" stroke-width="0.174305" stroke-miterlimit="10"/>
<path d="M19.0469 0.598755C19.4399 2.5257 20.0779 4.8518 21.1438 7.38358C22.0746 9.59465 23.1178 11.4527 24.0869 12.9526" stroke="#31454A" stroke-width="0.174305" stroke-miterlimit="10"/>
<path d="M17.9141 2.34265C18.1424 2.78626 18.505 3.36931 19.0697 3.94626C19.4636 4.3489 19.8558 4.64697 20.1896 4.86398" stroke="#31454A" stroke-width="0.174305" stroke-miterlimit="10"/>
<path d="M17.8203 4.69495C18.5245 6.31686 19.5381 8.24206 21.0057 10.2387C21.8712 11.4162 22.7505 12.4219 23.5785 13.2699" stroke="#31454A" stroke-width="0.174305" stroke-miterlimit="10"/>
<path d="M18.7109 8.10608C18.8425 8.24204 19.0334 8.41198 19.2922 8.5645C19.5964 8.74316 19.8797 8.83119 20.081 8.87651" stroke="#31454A" stroke-width="0.174305" stroke-miterlimit="10"/>
<path d="M24.5919 22.5734L25.4111 25.3126C25.2908 25.4006 25.1191 25.5505 24.9893 25.7806C24.7923 26.1318 24.8882 26.3235 24.7784 26.7637C24.6494 27.2787 24.4794 27.1698 24.123 27.9812C23.9365 28.4056 23.8964 28.6322 23.655 28.7542C23.6428 28.7603 23.3743 28.8902 23.1164 28.7778C22.8776 28.6732 22.9124 28.4753 22.6484 28.2156C22.4505 28.0213 22.3451 28.0492 21.9459 27.8173C21.586 27.609 21.4099 27.4992 21.2905 27.3493C20.982 26.9615 21.0578 26.5423 20.8382 26.497C20.7441 26.4778 20.65 26.5388 20.6029 26.5911C20.4417 26.7706 20.5767 27.1227 20.65 27.3127C20.7528 27.5794 21.0012 28.0709 21.6539 28.552C20.6308 28.4797 19.4089 28.4736 18.045 28.6305C17.1124 28.7377 16.2697 28.9033 15.5289 29.0889C15.4992 29.095 15.372 29.1229 15.3092 29.2353C15.2936 29.2641 15.2613 29.3216 15.2831 29.3835C15.3031 29.4427 15.365 29.4846 15.44 29.4933C15.1707 29.4628 14.9458 29.5621 14.8752 29.7286C14.87 29.7417 14.8334 29.8314 14.863 29.9299C14.9197 30.1182 15.1898 30.2471 15.5341 30.2306C15.5106 30.2341 15.2369 30.2811 15.1419 30.513C15.1297 30.5426 15.0853 30.6515 15.1262 30.764C15.182 30.9156 15.372 31.0167 15.5968 30.9993C17.8463 31.0882 20.0948 31.1771 22.3442 31.266C23.7003 31.0219 24.2781 30.4903 24.557 30.058C24.8507 29.6022 24.6755 29.4663 25.2316 27.9864C25.5601 27.1114 25.7309 26.6687 26.0159 26.4334C26.2164 26.2678 26.5136 26.0987 26.565 25.7745C26.592 25.608 26.5397 25.4904 26.4552 25.2725C26.1353 24.448 26.2687 24.5657 25.9532 23.8135C25.8591 23.5904 25.7301 23.3002 25.561 22.9664C25.2377 22.8357 24.9143 22.7041 24.5919 22.5734Z" fill="url(#paint3_linear_396_226)" stroke="black" stroke-width="0.261458" stroke-miterlimit="10"/>
<path d="M20.1934 28.8501C19.6679 28.6653 19.2147 29.1517 19.7856 29.5003L19.7158 29.6554C19.3472 29.5404 19.125 30.0371 19.4518 30.2463L19.6374 30.3578C19.545 30.3639 19.3716 30.3404 19.2923 30.4006C19.152 30.4912 19.1511 30.6943 19.2757 30.8137C19.0099 30.6585 19.1197 30.269 19.4178 30.2393L19.3934 30.3535C19.1772 30.2533 19.0744 29.9752 19.1711 29.7548C19.2644 29.5282 19.5424 29.4061 19.7725 29.4942L19.7028 29.6493C19.4587 29.5221 19.2539 29.1621 19.4605 28.919C19.647 28.7054 19.9773 28.7002 20.1934 28.8501Z" fill="black"/>
<path d="M15.4375 29.4941L19.5833 29.5046" stroke="black" stroke-width="0.261458" stroke-miterlimit="10"/>
<path d="M15.4219 30.2271C16.71 30.2358 17.9972 30.2445 19.2854 30.2532" stroke="black" stroke-width="0.261458" stroke-miterlimit="10"/>
<path d="M21.8125 14.9119C21.8273 14.7341 21.8752 14.4412 22.0461 14.1292C22.2971 13.6699 22.6657 13.4372 22.8331 13.3449C23.3168 13.0076 23.8205 12.6703 24.3452 12.3356C25.547 11.5678 26.7192 10.9011 27.8417 10.3207C28.2173 10.1307 28.8021 9.90756 29.5002 9.95201C31.3139 10.0671 32.4373 11.8903 33.0151 12.828C33.6452 13.8503 35.3917 16.6837 34.1402 19.6469C33.1563 21.9765 30.9452 22.902 30.438 23.1147C29.8785 23.3491 28.6845 23.8311 27.134 23.6306C24.8088 23.3291 23.4257 21.7159 23.0806 21.2871C23.2514 20.9315 24.1647 18.9409 23.2679 16.8345C22.8583 15.8732 22.2273 15.2518 21.8134 14.9119H21.8125Z" fill="#1B1411" stroke="black" stroke-width="0.34861" stroke-miterlimit="10"/>
<path d="M22.0156 14.85C22.0348 14.6914 22.0827 14.47 22.2047 14.2321C22.4374 13.7798 22.7983 13.5462 22.9665 13.4521C23.4092 13.154 23.8641 12.8559 24.333 12.5596C25.4895 11.8284 26.6225 11.1722 27.7215 10.5813C27.9507 10.4488 28.8615 9.96073 29.9744 10.2318C30.5522 10.373 30.9592 10.6641 31.1849 10.8558C31.395 11.0257 31.6146 11.2244 31.8342 11.4545C32.4173 12.0672 32.7973 12.6965 33.0448 13.208C32.9507 13.3318 32.8557 13.4547 32.7615 13.5784C32.5567 13.2603 31.8883 12.2528 31.0185 11.5077C30.4067 10.9839 29.9692 10.834 29.597 10.773C29.2658 10.719 28.9425 10.7591 27.5411 11.4484C27.5411 11.4484 26.0647 12.1744 24.272 13.2969C24.089 13.4111 23.7996 13.5959 23.4414 13.8547C23.1957 14.0325 22.9978 14.1876 22.8619 14.2974C22.7573 14.653 22.6527 15.0095 22.549 15.3651C22.3712 15.1925 22.1943 15.0208 22.0165 14.8483L22.0156 14.85Z" fill="#8C7D70"/>
<path d="M25.2094 9.57288C25.0055 10.5708 25.0491 11.5878 25.3288 12.5666C24.8129 11.6724 24.765 10.5054 25.2094 9.57288Z" fill="#1B1411"/>
<path d="M27.0774 7.77661C26.4508 8.9828 26.2416 10.365 26.4944 11.7011C25.9941 10.4156 26.2303 8.86253 27.0774 7.77661Z" fill="#1B1411"/>
<path d="M27.8438 10.9856C28.0041 9.40551 28.8425 7.88993 30.0949 6.91382C29.0186 8.0651 28.2438 9.46129 27.8438 10.9856Z" fill="#1B1411"/>
<path d="M29.6172 11.1059C30.0713 9.88833 31.1284 8.89566 32.3712 8.51917C31.2365 9.12139 30.2874 10.0095 29.6172 11.1059Z" fill="#1B1411"/>
<path d="M31.4141 12.1831C31.9945 11.3308 32.9218 10.7033 33.9293 10.4828C33.0116 10.9325 32.1732 11.4981 31.4141 12.1831Z" fill="#1B1411"/>
<path d="M32.3516 12.6625C32.8745 12.0629 33.7164 11.7343 34.5068 11.8241C33.739 11.9818 33.0226 12.259 32.3516 12.6625Z" fill="#1B1411"/>
<path d="M24.2792 21.572C24.0543 21.9398 23.758 22.3712 23.5297 22.7381C23.4477 22.868 23.3658 22.9996 23.2734 23.1294C23.3266 22.8157 23.4617 22.5237 23.6308 22.257C23.8042 21.993 24.0151 21.7507 24.2792 21.5729V21.572Z" fill="#1B1411"/>
<path d="M25.0469 22.2666C24.6878 22.7364 24.4211 23.2392 24.2329 23.7996C24.1754 23.1948 24.5144 22.5577 25.0469 22.2666Z" fill="#1B1411"/>
<path d="M26.6704 22.8175C26.7349 23.5217 26.8299 24.2058 26.958 24.9013C26.5989 24.2834 26.4926 23.5095 26.6704 22.8175Z" fill="#1B1411"/>
<path d="M27.8682 22.6022C27.8368 23.3918 28.0285 24.1552 28.4434 24.8298C27.822 24.3043 27.5858 23.3621 27.8682 22.6022Z" fill="#1B1411"/>
<path d="M28.7586 22.6736C28.9817 23.173 29.3181 23.5791 29.7643 23.8955C29.1987 23.8074 28.7368 23.2462 28.7586 22.6736Z" fill="#1B1411"/>
<path d="M28.8828 16.4962C29.1007 16.7368 29.4537 17.0828 29.9539 17.3939C30.9204 17.9944 31.5052 17.8863 32.4151 18.2341C33.7965 18.7613 34.6122 19.8568 35.0506 20.4059C35.4951 20.9637 35.7888 21.4875 36.0285 21.9171C36.3405 22.474 36.4956 22.7529 36.5793 23.1024C36.737 23.7674 36.5278 23.9608 36.5278 24.9526C36.5278 25.7083 36.5278 26.2669 36.8468 26.8064C37.3218 27.6091 38.2447 27.9446 38.3241 27.8487C38.3659 27.7973 38.1724 27.6178 37.6582 26.8064C37.531 26.6051 37.3915 26.3785 37.3392 26.0534C37.3305 26.0002 37.2625 25.5592 37.3968 25.5035C37.5362 25.4459 37.7018 25.8799 38.121 26.1118C38.7459 26.4569 39.6148 26.1745 39.627 25.9959C39.6374 25.8407 38.9969 25.8599 38.3816 25.3013C38.0426 24.9927 37.6922 24.4899 37.8316 24.2589C37.9563 24.0524 38.3441 24.2729 38.7581 24.0558C39.3864 23.7273 39.5346 22.6736 39.3664 22.5786C39.281 22.5307 39.1363 22.7433 38.44 23.2157C38.0364 23.4894 37.8639 23.5678 37.7741 23.505C37.6399 23.4118 37.8064 23.0885 37.6294 22.8967C37.5222 22.7817 37.3453 22.773 37.2242 22.7808C36.7998 21.8483 36.3666 21.1179 36.0372 20.609C35.4288 19.6686 35.0471 19.0803 34.329 18.4946C33.5646 17.8724 32.7942 17.5612 32.4465 17.4235C31.6142 17.0941 31.1854 17.095 30.2746 16.6705C29.7761 16.4378 29.3918 16.199 29.1451 16.0334C29.058 16.1877 28.9717 16.342 28.8846 16.4971L28.8828 16.4962Z" fill="url(#paint4_linear_396_226)" stroke="black" stroke-width="0.261458" stroke-miterlimit="10"/>
<path d="M26.7729 14.646C31.2386 13.6324 35.9474 12.4079 40.8559 10.9228C44.5163 9.81512 47.9998 8.64989 51.302 7.45503C52.3103 7.12211 55.9402 5.94206 58.9941 5.3564C59.5693 5.24571 60.5253 5.07925 61.4274 5.57776C61.5372 5.63877 62.4575 6.16517 62.7547 7.23715C62.8314 7.51255 63.0153 8.35968 62.1647 9.92842C61.1372 11.8249 59.6085 12.9125 58.8102 13.4311C56.3246 15.0425 53.9375 15.6474 52.3958 15.9751C49.1554 16.6644 46.4676 16.7263 41.2254 16.8231C35.177 16.9346 32.2513 16.6723 31.161 16.5651C29.1565 16.3673 27.4788 16.1119 26.2578 15.9019" fill="#D9ECF9"/>
<path d="M26.7729 14.646C31.2386 13.6324 35.9474 12.4079 40.8559 10.9228C44.5163 9.81512 47.9998 8.64989 51.302 7.45503C52.3103 7.12211 55.9402 5.94206 58.9941 5.3564C59.5693 5.24571 60.5253 5.07925 61.4274 5.57776C61.5372 5.63877 62.4575 6.16517 62.7547 7.23715C62.8314 7.51255 63.0153 8.35968 62.1647 9.92842C61.1372 11.8249 59.6085 12.9125 58.8102 13.4311C56.3246 15.0425 53.9375 15.6474 52.3958 15.9751C49.1554 16.6644 46.4676 16.7263 41.2254 16.8231C35.177 16.9346 32.2513 16.6723 31.161 16.5651C29.1565 16.3673 27.4788 16.1119 26.2578 15.9019" stroke="#31454A" stroke-width="0.34861" stroke-miterlimit="10"/>
<path d="M26.5859 14.9928C28.872 14.544 32.3267 13.8346 36.5205 12.848C40.2706 11.966 43.0133 11.2383 45.5268 10.5751C49.3859 9.55626 54.9811 8.08861 62.0806 6.25928" fill="#D9ECF9"/>
<path d="M26.5859 14.9928C28.872 14.544 32.3267 13.8346 36.5205 12.848C40.2706 11.966 43.0133 11.2383 45.5268 10.5751C49.3859 9.55626 54.9811 8.08861 62.0806 6.25928" stroke="#31454A" stroke-width="0.174305" stroke-miterlimit="10"/>
<path d="M26.6094 15.3563C32.4739 15.0199 37.3457 14.4281 40.953 13.8947C45.7934 13.1801 49.7763 12.3617 53.8106 11.5329C57.2845 10.8191 60.1806 10.1663 62.2609 9.68176" stroke="#31454A" stroke-width="0.174305" stroke-miterlimit="10"/>
<path d="M26.4375 15.6482C31.4993 15.907 35.9023 15.8757 39.4659 15.7458C45.1326 15.5384 49.5068 15.0503 52.178 14.747C54.607 14.4716 56.6542 14.1901 58.1689 13.9679" stroke="#31454A" stroke-width="0.174305" stroke-miterlimit="10"/>
<path d="M57.3203 10.7842C58.1029 10.2927 59.113 9.75582 60.3419 9.31657C61.1942 9.0124 61.9856 8.8137 62.6793 8.68384" stroke="#31454A" stroke-width="0.174305" stroke-miterlimit="10"/>
<path d="M53.2188 14.6015C54.1208 14.1457 55.3156 13.6498 56.772 13.3099C57.8971 13.0467 58.9133 12.9395 59.7596 12.9064" stroke="#31454A" stroke-width="0.174305" stroke-miterlimit="10"/>
<path d="M27.727 16.2061C27.7079 16.2104 27.2529 16.3185 27.1457 16.6471C26.9941 17.1116 27.646 17.6667 28.2499 18.2698C28.3702 18.3892 29.0648 19.2521 30.454 20.9768C30.454 20.9768 31.0101 21.6784 32.5187 24.0437C32.6782 24.2938 32.9632 24.754 32.9597 25.3667C32.9571 25.7815 32.8228 26.1563 32.5788 26.5694C31.9278 27.6719 31.1007 28.0257 28.0077 29.5761C27.8429 29.6589 27.4316 29.8655 27.1457 29.6964C27.0969 29.6677 26.9993 29.5971 26.825 29.1953C26.6289 28.7447 26.71 28.6236 26.5644 28.4135C26.3709 28.1338 26.1757 28.2628 25.7827 27.9725C25.4332 27.7146 25.2318 27.3503 25.0209 26.9703C24.8353 26.6356 24.7665 26.416 24.6802 26.4291C24.5773 26.4448 24.5451 26.7742 24.5399 26.9302C24.5355 27.0618 24.5216 27.515 24.8205 27.9525C25.0122 28.234 25.1647 28.2601 25.1613 28.4336C25.1569 28.6427 24.9329 28.8406 24.7203 28.9147C24.5982 28.9574 24.4884 28.9565 24.4187 28.9495C23.2613 28.9661 22.1048 28.9826 20.9474 28.9992C20.9099 28.9992 20.8603 29.0018 20.8036 29.0088C20.6093 29.0341 20.211 29.1334 20.1883 29.3147C20.1718 29.4437 20.3469 29.5988 20.5866 29.7016C20.5378 29.7016 19.8894 29.7043 19.7499 30.0354C19.7386 30.0625 19.7212 30.1052 19.7282 30.1575C19.7526 30.3535 20.0872 30.5096 20.5701 30.5584C20.2947 30.595 20.075 30.7475 20.0088 30.9593C19.994 31.0063 19.9469 31.185 20.0419 31.3009C20.1761 31.4656 20.5082 31.3985 20.611 31.3802C21.5662 31.2094 22.5458 31.5275 23.5141 31.5841C25.2667 31.687 25.3852 31.7724 25.828 31.612C26.3256 31.4316 26.3988 31.2434 27.1466 30.8582C27.897 30.4721 28.4617 30.3326 28.9106 30.1967C30.047 29.8524 32.4516 29.123 33.622 27.23C33.8129 26.9206 34.0866 26.4674 34.1632 25.8268C34.2966 24.7139 33.7275 23.9566 32.9204 22.6196C31.268 19.8813 31.3081 19.1719 29.8535 17.5273C29.0169 16.5817 28.3406 16.0675 27.7288 16.2043L27.727 16.2061Z" fill="url(#paint5_linear_396_226)" stroke="black" stroke-width="0.261458" stroke-miterlimit="10"/>
<path d="M20.375 29.7183C21.1698 29.7252 21.9708 29.7357 22.7769 29.7505C23.2632 29.7592 23.7469 29.7697 24.228 29.7819" fill="url(#paint6_linear_396_226)"/>
<path d="M20.3776 29.5875C21.5132 29.6407 23.1107 29.7156 24.2298 29.7819C23.5874 29.7915 22.9443 29.7941 22.3019 29.8098L20.375 29.849L20.3776 29.5875Z" fill="black"/>
<path d="M20.4766 30.5662C21.2714 30.5731 22.0723 30.5836 22.8785 30.5984C23.3648 30.6071 23.8485 30.6176 24.3296 30.6298" fill="url(#paint7_linear_396_226)"/>
<path d="M20.4792 30.4363C21.6148 30.4894 23.2123 30.5644 24.3313 30.6306C23.689 30.6402 23.0458 30.6428 22.4035 30.6585L20.4766 30.6977L20.4792 30.4363Z" fill="black"/>
<path d="M28.6665 29.7095C28.1811 30.8311 27.6948 31.9519 27.2093 33.0736C27.178 33.1633 27.1396 33.3002 27.1344 33.4701C27.13 33.5973 27.1178 33.959 27.3697 34.2519C27.3985 34.2859 27.5684 34.4785 27.8412 34.5412C27.9989 34.5769 28.0817 34.5447 28.1009 34.5369C28.1811 34.5029 28.2308 34.4419 28.3083 34.312C28.3746 34.2013 28.4582 34.0462 28.5376 33.8483C28.948 32.765 29.3585 31.6817 29.769 30.5984" fill="#99A2A3"/>
<path d="M28.6665 29.7095C28.1811 30.8311 27.6948 31.9519 27.2093 33.0736C27.178 33.1633 27.1396 33.3002 27.1344 33.4701C27.13 33.5973 27.1178 33.959 27.3697 34.2519C27.3985 34.2859 27.5684 34.4785 27.8412 34.5412C27.9989 34.5769 28.0817 34.5447 28.1009 34.5369C28.1811 34.5029 28.2308 34.4419 28.3083 34.312C28.3746 34.2013 28.4582 34.0462 28.5376 33.8483C28.948 32.765 29.3585 31.6817 29.769 30.5984" stroke="#30403E" stroke-width="0.261458" stroke-miterlimit="10"/>
<path d="M28.4192 18.6446C28.1717 18.7387 28.1691 19.4333 28.2998 19.9536C28.5491 20.9393 29.336 21.5241 29.5853 21.715C30.4751 22.3974 31.7101 23.5992 33.4183 25.9044C33.2875 26.0107 33.1368 26.1511 32.9895 26.3332C32.7768 26.5947 32.6444 26.85 32.5607 27.047C32.43 26.85 32.1903 26.5424 31.799 26.2853C31.6194 26.1676 31.0181 25.785 30.252 25.8565C29.9409 25.8861 30.0202 25.9506 28.9901 26.3567C28.1848 26.674 27.7568 26.7838 27.7281 27.047C27.7115 27.1978 27.8353 27.3215 27.8475 27.3329C27.9895 27.4706 28.2397 27.4889 28.4898 27.3808C28.482 27.4679 28.4793 27.6405 28.5613 27.8331C28.6258 27.9839 28.7164 28.0859 28.7757 28.1425C28.5822 28.0684 28.3643 28.1164 28.2283 28.2619C28.075 28.4257 28.0523 28.6828 28.1804 28.8807C28.3155 29.1308 28.5482 29.5108 28.9186 29.9039C29.357 30.3701 29.9078 30.9575 30.537 30.88C30.8133 30.846 31.0007 30.6969 31.3702 30.4041C31.5645 30.2499 31.9044 29.9797 32.1554 29.523C32.4518 28.9835 32.2888 28.7944 32.5842 28.3804C32.6531 28.2837 32.6923 28.2514 33.3939 27.7381C34.1277 27.2004 34.336 27.0513 34.5364 26.7385C34.6637 26.5389 34.7744 26.3663 34.7718 26.1258C34.7691 25.8818 34.6497 25.6796 34.2262 25.1793C33.8976 24.7915 33.7329 24.598 33.5473 24.4272C32.6051 23.5635 30.9536 21.6174 30.1091 20.5489C29.0772 19.2433 28.6929 18.54 28.4192 18.6446Z" fill="url(#paint8_linear_396_226)" stroke="black" stroke-width="0.261458" stroke-miterlimit="10"/>
<path d="M28.3751 27.6318C28.3664 27.1368 28.8292 26.9285 29.2632 26.993C29.6362 27.0575 29.923 27.312 30.2472 27.4784L30.8703 27.8314L30.2167 27.5368C29.8977 27.4096 29.5909 27.1882 29.2493 27.1568C28.9547 27.1438 28.5921 27.2701 28.6375 27.624L28.376 27.6327L28.3751 27.6318Z" fill="black"/>
<path d="M29.0168 27.1751C28.7118 26.6879 29.0316 26.1562 29.5737 26.0796C29.809 26.0499 30.0251 26.1066 30.2273 26.1624C30.8461 26.3131 31.3978 26.6521 31.9024 27.0313C32.2284 27.2997 32.4802 27.745 32.2179 28.1416C32.5125 27.6326 32.0331 27.1402 31.6009 26.9162C31.3359 26.7576 31.0657 26.5972 30.7781 26.4892C30.4156 26.3706 29.9816 26.2234 29.6051 26.273C29.2347 26.3471 29.0002 26.6983 29.2364 27.033L29.0168 27.1759V27.1751Z" fill="black"/>
<path d="M28.7028 27.9481L30.3187 29.2214L28.5547 28.1625L28.7028 27.9481Z" fill="black"/>
<path d="M30.5938 30.7422C30.7942 30.5879 30.8848 30.3091 30.8108 30.0546C30.9807 30.3038 30.965 30.6577 30.7916 30.9139L30.5946 30.7422H30.5938Z" fill="black"/>
<path d="M33.3984 25.751C33.6494 25.6674 33.9353 25.7083 34.1392 25.8635C34.0242 25.8303 33.9057 25.8268 33.7985 25.8495C33.6913 25.8722 33.5945 25.9201 33.517 25.9837L33.3984 25.751Z" fill="black"/>
<path d="M30.3344 26.2965C30.5183 26.0002 30.6438 25.7379 30.7283 25.5383C30.9287 25.0659 30.9479 24.8367 30.8695 24.6667C30.8555 24.6362 30.8364 24.6023 30.8242 24.5822C30.7135 24.3905 30.5845 24.2606 30.4895 24.1787C30.4433 24.1412 30.4058 24.1003 30.3745 24.0602C30.0346 23.6122 30.3492 22.8914 30.4023 22.7747C31.1388 20.8216 31.9075 19.3853 32.467 18.4475C32.7363 17.9961 33.2235 17.2161 34.1002 16.4988C34.6502 16.0491 35.5025 15.5027 35.6585 15.6639C35.7335 15.7406 35.6324 15.9628 35.5287 16.1467C35.3474 16.5572 35.1661 16.9712 34.9848 17.3895C34.8393 17.7259 34.3425 18.8458 33.4204 21.1223C32.5655 23.234 31.8395 25.1618 31.2808 26.6922" fill="#99A2A3"/>
<path d="M31.2575 20.9716C31.5574 20.8548 31.8789 20.7093 32.211 20.5262C33.1592 20.0042 33.8486 19.3697 34.3244 18.8407L33.1488 21.6671C32.828 21.7176 32.4254 21.817 31.9931 22.0183C31.0562 22.454 30.5019 23.126 30.2344 23.506C30.2753 23.0772 30.3904 22.4567 30.7285 21.7908C30.8967 21.4605 31.0832 21.1886 31.2567 20.9725L31.2575 20.9716Z" fill="#C2C5C7"/>
<path d="M32.6971 18.1739C32.4723 18.5748 32.2483 18.9748 32.0234 19.3757C32.3189 19.0637 32.7913 18.641 33.4641 18.2976C33.9495 18.0501 34.3983 17.9168 34.7487 17.8418C34.8899 17.5106 35.0319 17.1786 35.1731 16.8474C34.8141 17.1516 34.3234 17.5037 33.6915 17.8009C33.3342 17.9691 32.9969 18.0876 32.6971 18.1739Z" fill="#F3F4F4"/>
<path d="M30.3629 26.3262C30.5521 26.0229 30.6845 25.7501 30.7752 25.5366C30.9643 25.0938 31.0018 24.8507 30.9164 24.665C30.9024 24.6345 30.8832 24.6005 30.871 24.5805C30.7604 24.3888 30.6314 24.2589 30.5364 24.177C30.4902 24.1395 30.4527 24.0985 30.4213 24.0585C30.0814 23.6105 30.3961 22.8897 30.4492 22.773C31.1857 20.8199 31.9543 19.3836 32.5139 18.4458C32.7832 17.9944 33.2704 17.2144 34.1471 16.4971C34.697 16.0474 35.5494 15.5009 35.7054 15.6622C35.7803 15.7389 35.6793 15.9611 35.5755 16.145C34.8661 17.7495 34.1619 19.408 33.4673 21.1205C32.6934 23.0283 31.9753 24.8977 31.3077 26.7218" stroke="#30403E" stroke-width="0.261458" stroke-miterlimit="10"/>
<path d="M31.9136 25.3153L30.8353 24.9761C30.7407 24.9464 30.6399 24.9989 30.6102 25.0935L30.5663 25.2332C30.5365 25.3278 30.5891 25.4286 30.6837 25.4583L31.762 25.7975C31.8565 25.8272 31.9573 25.7747 31.9871 25.6801L32.031 25.5404C32.0608 25.4458 32.0082 25.345 31.9136 25.3153Z" fill="#99A2A3" stroke="#30403E" stroke-width="0.174305" stroke-miterlimit="10"/>
<path d="M29.0168 27.1707C28.7118 26.6835 29.0316 26.1519 29.5737 26.0752C29.809 26.0455 30.0251 26.1022 30.2273 26.158C30.8461 26.3087 31.3978 26.6478 31.9024 27.0269C32.2284 27.2953 32.4802 27.7406 32.2179 28.1372C32.5125 27.6282 32.0331 27.1358 31.6009 26.9118C31.3359 26.7532 31.0658 26.5928 30.7781 26.4848C30.4156 26.3663 29.9816 26.219 29.6051 26.2686C29.2347 26.3427 29.0002 26.6939 29.2364 27.0286L29.0168 27.1715V27.1707Z" fill="black"/>
<path d="M17.2004 21.973C17.0662 22.7826 16.932 23.5923 16.7969 24.4019C17.9394 24.469 19.082 24.5353 20.2246 24.6024C20.9488 23.7988 21.8692 22.5979 22.6161 20.9742C23.1852 19.7367 23.4946 18.6002 23.6697 17.6964C21.5136 19.1222 19.3565 20.5472 17.2004 21.973Z" fill="white" stroke="black" stroke-width="0.34861" stroke-miterlimit="10"/>
<path d="M16.5854 20.5071L1.352 31.5764L1.24219 31.6749C10.9841 26.2984 18.0592 22.319 19.614 21.4632C20.0349 21.2314 21.1871 20.6039 22.3549 19.4108C22.5963 19.1641 22.8159 18.9166 23.0138 18.6743C22.8499 19.3794 22.5885 20.2265 22.1597 21.1372C21.5052 22.5282 20.7008 23.5583 20.0576 24.2547C19.4789 24.1928 18.861 24.1458 18.2099 24.1213C17.6774 24.1013 17.1676 24.0978 16.6821 24.1074L16.8207 23.6124C16.5244 23.8146 16.3022 23.9723 16.1871 24.0508C16.1584 24.0699 16.0965 24.1126 16.0599 24.1919C16.0329 24.2503 16.0311 24.3035 16.032 24.3331C16.0555 24.5127 16.079 24.6913 16.1026 24.8709C16.1113 24.8944 16.1435 24.9737 16.2298 25.0269C16.317 25.08 16.4033 25.0722 16.4277 25.0696C17.0613 25.0495 17.7323 25.0469 18.4365 25.0696C19.2479 25.0948 20.0131 25.1506 20.7286 25.2256C20.76 25.2299 20.8123 25.2325 20.8698 25.2116C21.0006 25.1637 21.0467 25.0338 21.0537 25.0138C21.3213 23.6856 21.7919 22.7705 22.1858 22.17C22.9589 20.9917 23.5437 20.345 23.5437 20.345C23.5933 20.2901 24.1476 19.6792 24.6043 18.8172C24.7167 18.6055 24.8544 18.3196 24.7882 17.9823C24.7778 17.9274 24.6958 17.5387 24.3638 17.36C24.2043 17.2738 24.0021 17.2441 23.5437 17.36C23.1994 17.4472 22.6817 17.6224 22.1004 18.0111C22.2948 17.8769 22.5423 17.7287 22.8421 17.598C23.0992 17.4855 23.338 17.4106 23.5437 17.36C23.5463 17.1631 23.5262 16.8659 23.4025 16.5399C22.9632 15.3808 21.6612 15.0113 21.4642 14.9555C20.1142 14.572 18.9507 15.2231 18.4932 15.4793C18.128 15.6841 17.348 16.1329 16.8242 17.0637C15.9596 18.5985 16.4826 20.2091 16.5863 20.5089L16.5854 20.5071Z" fill="url(#paint9_linear_396_226)" stroke="black" stroke-width="0.34861" stroke-miterlimit="10"/>
<path d="M17.0938 23.0789C17.2489 23.3378 17.4947 23.5295 17.7692 23.6193L17.7029 23.6576C17.7526 23.1809 18.008 22.7277 18.3923 22.4366L18.4786 22.3712C18.6965 22.7896 19.0756 23.1234 19.5262 23.2541L19.3667 23.3857C19.2813 22.7512 19.4669 22.0828 19.8722 21.586L19.9942 21.4352L20.0857 21.6043C20.2757 21.9573 20.5842 22.2449 20.9537 22.4087L20.7951 22.529C20.7019 21.7664 20.9938 20.9611 21.5647 20.4495L21.6161 20.4025C21.7338 20.6883 21.9211 20.9446 22.1695 21.1424C21.9168 20.9916 21.7006 20.7711 21.5551 20.5062L21.6327 20.5192C21.0845 21.1075 20.8962 21.9198 21.0496 22.6963C20.5537 22.5246 20.1092 22.1978 19.86 21.7272L20.0726 21.7455C19.6665 22.2501 19.5279 22.9133 19.6308 23.5469C19.0974 23.4049 18.6119 23.0606 18.3653 22.5604L18.5074 22.5926C18.3287 22.7172 18.1718 22.875 18.0516 23.0589C17.9191 23.2602 17.8311 23.4929 17.7884 23.7326C17.4781 23.6158 17.2192 23.3726 17.0938 23.0772V23.0789Z" fill="black"/>
<path d="M18.1606 20.0278L18.0264 19.6635C13.1293 23.214 8.23217 26.7655 3.33594 30.3161C8.27749 26.8867 13.2199 23.4572 18.1615 20.0269L18.1606 20.0278Z" fill="#766C62"/>
<path d="M16.5625 18.4503C16.6174 18.0781 16.7682 17.4236 17.2405 16.7717C17.7086 16.1259 18.2576 15.8087 18.6298 15.5987C19.0341 15.3703 19.5954 15.0539 20.399 15.0121C20.6674 14.9982 21.4735 14.9668 22.2571 15.4592C22.461 15.5873 22.8035 15.8078 23.0623 16.2445C23.2968 16.6401 23.3482 17.0192 23.3604 17.2284C23.2933 17.0576 22.7564 15.7581 21.4125 15.3904C20.3292 15.094 19.4272 15.5978 18.9975 15.8374C17.6554 16.5878 17.1656 17.8916 17.0296 18.3021C16.8736 18.3518 16.7185 18.4015 16.5625 18.4512V18.4503Z" fill="#887C72"/>
<path d="M18.5024 17.7295C18.4719 17.5805 18.3395 17.0253 17.8183 16.6349C17.3302 16.2697 16.7132 16.207 16.2156 16.3612C15.3327 16.634 14.9396 17.5526 14.8786 18.2132C14.8629 18.384 14.7784 19.3105 15.4748 19.9205C16.0421 20.4182 16.7411 20.3642 16.8997 20.3476C18.0161 20.2291 18.5347 19.1588 18.5661 19.0917" fill="url(#paint10_radial_396_226)"/>
<path d="M18.5024 17.7295C18.4719 17.5805 18.3395 17.0253 17.8183 16.6349C17.3302 16.2697 16.7132 16.207 16.2156 16.3612C15.3327 16.634 14.9396 17.5526 14.8786 18.2132C14.8629 18.384 14.7784 19.3105 15.4748 19.9205C16.0421 20.4182 16.7411 20.3642 16.8997 20.3476C18.0161 20.2291 18.5347 19.1588 18.5661 19.0917" stroke="black" stroke-width="0.34861" stroke-miterlimit="10"/>
<path d="M21.5049 16.003C20.5706 15.6361 19.4978 16.0544 18.8947 16.7351C18.4694 17.2153 17.9918 18.1487 18.3744 18.974C18.635 19.5353 19.1631 19.7662 19.2974 19.8229C20.4722 20.3162 21.6426 19.3488 21.6958 19.3026C22.1943 18.8773 22.9046 17.9387 22.5769 17.0209C22.3285 16.3255 21.6287 16.0509 21.5049 16.0021V16.003Z" fill="url(#paint11_radial_396_226)" stroke="black" stroke-width="0.34861" stroke-miterlimit="10"/>
<path d="M17.6008 19.3959C17.8549 19.3959 18.061 19.0143 18.061 18.5435C18.061 18.0728 17.8549 17.6912 17.6008 17.6912C17.3466 17.6912 17.1406 18.0728 17.1406 18.5435C17.1406 19.0143 17.3466 19.3959 17.6008 19.3959Z" fill="black"/>
<path d="M17.6078 18.5051C17.7449 18.5051 17.8561 18.3514 17.8561 18.1617C17.8561 17.9721 17.7449 17.8184 17.6078 17.8184C17.4706 17.8184 17.3594 17.9721 17.3594 18.1617C17.3594 18.3514 17.4706 18.5051 17.6078 18.5051Z" fill="white"/>
<path d="M20.6008 18.9809C20.8549 18.9809 21.061 18.5993 21.061 18.1286C21.061 17.6579 20.8549 17.2762 20.6008 17.2762C20.3466 17.2762 20.1406 17.6579 20.1406 18.1286C20.1406 18.5993 20.3466 18.9809 20.6008 18.9809Z" fill="black"/>
<path d="M20.6156 18.0903C20.7528 18.0903 20.864 17.9366 20.864 17.7469C20.864 17.5573 20.7528 17.4036 20.6156 17.4036C20.4784 17.4036 20.3672 17.5573 20.3672 17.7469C20.3672 17.9366 20.4784 18.0903 20.6156 18.0903Z" fill="white"/>
<path d="M15.4844 16.8963C16.4474 17.4532 17.4113 18.011 18.3744 18.5679C18.4005 18.4825 18.6236 17.6946 18.1094 17.007C17.7547 16.532 17.1499 16.2418 16.5293 16.3255C15.9454 16.4039 15.5863 16.7804 15.4844 16.8963Z" fill="url(#paint12_linear_396_226)" stroke="black" stroke-width="0.261458" stroke-miterlimit="10"/>
<path d="M18.3467 18.6925C19.4718 17.8427 20.5961 16.9939 21.7212 16.1441C21.6532 16.1154 20.4314 15.6221 19.3446 16.4003C18.6203 16.9189 18.2369 17.8009 18.3467 18.6925Z" fill="url(#paint13_linear_396_226)" stroke="black" stroke-width="0.261458" stroke-miterlimit="10"/>
<path d="M18.2568 17.2388C18.1409 16.8223 17.9291 16.1294 17.6241 15.4618C17.5238 15.2413 17.3818 14.9563 17.0863 14.8465C16.919 14.7846 16.77 14.8029 16.7046 14.8125C16.0666 14.9005 15.7137 15.745 15.6797 15.8287C15.7102 15.8043 16.0353 15.5385 16.3159 15.3511C16.3874 15.3032 16.4946 15.2352 16.6462 15.2143C16.6462 15.2143 16.6924 15.2082 16.7377 15.2082C16.9059 15.2082 17.3208 15.8061 17.7652 16.6697C17.9291 16.8597 18.0929 17.0497 18.2568 17.2397V17.2388Z" fill="black"/>
<path d="M18.5009 17.3652C18.6935 16.9721 18.812 16.6383 18.8843 16.403C18.9942 16.0483 19.0386 15.7947 19.2094 15.311C19.4116 14.7393 19.5188 14.6138 19.6574 14.5632C19.8413 14.497 20.0252 14.5833 20.1986 14.6643C20.6204 14.8613 20.874 15.1959 21.0144 15.4321C20.7494 15.2439 20.5063 15.1672 20.3468 15.1332C20.1768 15.0966 20.0443 15.0678 19.9093 15.1219C19.6687 15.2177 19.5903 15.5088 19.5127 15.7319C19.4046 16.0422 19.2147 16.4658 18.8512 16.9573C18.7344 17.0933 18.6177 17.2292 18.5 17.366L18.5009 17.3652Z" fill="black"/>
<path opacity="0.3" d="M15.6962 16.8623L15.9995 17.0436C16.159 16.9416 16.4169 16.8144 16.7438 16.8013C17.685 16.7621 18.2637 17.7007 18.2916 17.7469C18.2672 17.6075 18.1826 17.2275 17.8506 16.8972C17.7626 16.81 17.4418 16.5111 16.932 16.4519C16.6078 16.4144 16.3507 16.4902 16.2269 16.5355C15.9681 16.6296 15.7921 16.7726 15.6953 16.8641L15.6962 16.8623Z" fill="#8D7E76"/>
<path opacity="0.3" d="M18.4618 18.431C18.4583 18.2131 18.4819 17.7469 18.7573 17.251C19.0379 16.7464 19.4257 16.4919 19.5259 16.4291C20.0471 16.1023 20.5526 16.0927 20.7374 16.091C21.0311 16.0892 21.2725 16.1424 21.4372 16.1912C21.3657 16.2505 21.2951 16.3097 21.2237 16.3681C20.9823 16.3028 20.4672 16.2025 19.9059 16.4134C19.1207 16.7089 18.569 17.4924 18.4609 18.431H18.4618Z" fill="#8D7E76"/>
<path d="M18.2315 17.0157C17.5631 14.022 18.2803 10.7765 20.0225 8.26472C20.6038 7.42718 21.2871 6.66111 22.0645 6.0127C20.6335 7.59626 19.4926 9.42734 18.8364 11.4571C18.2594 13.2498 18.0799 15.135 18.2315 17.0166V17.0157Z" fill="black"/>
<path d="M18.9688 16.6182C19.1265 13.4703 20.7249 10.4452 23.1556 8.45204C23.9643 7.78533 24.8568 7.22058 25.8094 6.80225C23.9425 7.95266 22.2919 9.44384 21.0892 11.2767C20.0155 12.8881 19.3287 14.714 18.9688 16.6191V16.6182Z" fill="black"/>
<path d="M22.8359 18.1662C23.1453 17.8185 23.7162 17.7287 24.118 17.964C23.6909 18.0956 23.2822 18.1575 22.8359 18.1662Z" fill="black"/>
<path d="M26.8826 14.0289C27.063 14.9231 26.6246 15.9341 25.8438 16.4065C26.0303 16.0012 26.229 15.636 26.4007 15.2343C26.5784 14.8351 26.7109 14.4412 26.8826 14.0289Z" fill="black"/>
<path d="M24.8594 15.0687C25.0258 14.7576 25.3988 14.5624 25.7492 14.6051C25.466 14.7977 25.1792 14.9458 24.8594 15.0687Z" fill="black"/>
<path d="M24.4923 14.7192C24.487 14.3671 24.7189 14.015 25.0457 13.8826C24.8914 14.1885 24.7119 14.4569 24.4923 14.7192Z" fill="black"/>
<path d="M26.8482 20.5899C26.5005 20.6483 26.1179 20.4722 25.9375 20.1689C26.2635 20.2753 26.5554 20.4121 26.8482 20.5899Z" fill="black"/>
<path d="M27.8269 19.7924C27.5079 19.9431 27.0922 19.8786 26.8359 19.6364C27.1784 19.6494 27.4966 19.7008 27.8269 19.7924Z" fill="black"/>
<path d="M28.5312 13.5297C28.6977 13.2185 29.0707 13.0233 29.4211 13.066C29.1378 13.2586 28.8511 13.4068 28.5312 13.5297Z" fill="black"/>
<path d="M28.0547 12.5901C28.2211 12.279 28.5942 12.0837 28.9445 12.1264C28.6613 12.3191 28.3745 12.4672 28.0547 12.5901Z" fill="black"/>
</g>
<defs>
<linearGradient id="paint0_linear_396_226" x1="43.8841" y1="31.7175" x2="30.9917" y2="35.3578" gradientUnits="userSpaceOnUse">
<stop stop-color="#615951"/>
<stop offset="0.6" stop-color="#3D3732"/>
<stop offset="1" stop-color="#2B2622"/>
</linearGradient>
<linearGradient id="paint1_linear_396_226" x1="11.181" y1="18.5966" x2="13.0443" y2="18.5966" gradientUnits="userSpaceOnUse">
<stop stop-color="#2D271F"/>
<stop offset="0.08" stop-color="#393229"/>
<stop offset="0.32" stop-color="#574E45"/>
<stop offset="0.56" stop-color="#6D6259"/>
<stop offset="0.79" stop-color="#7A6E64"/>
<stop offset="1" stop-color="#7F7369"/>
</linearGradient>
<linearGradient id="paint2_linear_396_226" x1="20.2791" y1="16.9851" x2="9.99948" y2="16.8457" gradientUnits="userSpaceOnUse">
<stop stop-color="#2D271F"/>
<stop offset="0.08" stop-color="#393229"/>
<stop offset="0.32" stop-color="#574E45"/>
<stop offset="0.56" stop-color="#6D6259"/>
<stop offset="0.79" stop-color="#7A6E64"/>
<stop offset="1" stop-color="#7F7369"/>
</linearGradient>
<linearGradient id="paint3_linear_396_226" x1="24.876" y1="26.5501" x2="13.5671" y2="29.6188" gradientUnits="userSpaceOnUse">
<stop stop-color="#2D271F"/>
<stop offset="0.08" stop-color="#393229"/>
<stop offset="0.32" stop-color="#574E45"/>
<stop offset="0.56" stop-color="#6D6259"/>
<stop offset="0.79" stop-color="#7A6E64"/>
<stop offset="1" stop-color="#7F7369"/>
</linearGradient>
<linearGradient id="paint4_linear_396_226" x1="29.3003" y1="15.0878" x2="40.7068" y2="27.5681" gradientUnits="userSpaceOnUse">
<stop stop-color="#2D271F"/>
<stop offset="0.08" stop-color="#393229"/>
<stop offset="0.32" stop-color="#574E45"/>
<stop offset="0.56" stop-color="#6D6259"/>
<stop offset="0.79" stop-color="#7A6E64"/>
<stop offset="1" stop-color="#7F7369"/>
</linearGradient>
<linearGradient id="paint5_linear_396_226" x1="33.4312" y1="20.3624" x2="16.1819" y2="30.7335" gradientUnits="userSpaceOnUse">
<stop stop-color="#2D271F"/>
<stop offset="0.08" stop-color="#393229"/>
<stop offset="0.32" stop-color="#574E45"/>
<stop offset="0.56" stop-color="#6D6259"/>
<stop offset="0.79" stop-color="#7A6E64"/>
<stop offset="1" stop-color="#7F7369"/>
</linearGradient>
<linearGradient id="paint6_linear_396_226" x1="20.375" y1="29.7505" x2="24.2289" y2="29.7505" gradientUnits="userSpaceOnUse">
<stop stop-color="#2D271F"/>
<stop offset="0.08" stop-color="#393229"/>
<stop offset="0.32" stop-color="#574E45"/>
<stop offset="0.56" stop-color="#6D6259"/>
<stop offset="0.79" stop-color="#7A6E64"/>
<stop offset="1" stop-color="#7F7369"/>
</linearGradient>
<linearGradient id="paint7_linear_396_226" x1="20.4766" y1="30.5984" x2="24.3296" y2="30.5984" gradientUnits="userSpaceOnUse">
<stop stop-color="#2D271F"/>
<stop offset="0.08" stop-color="#393229"/>
<stop offset="0.32" stop-color="#574E45"/>
<stop offset="0.56" stop-color="#6D6259"/>
<stop offset="0.79" stop-color="#7A6E64"/>
<stop offset="1" stop-color="#7F7369"/>
</linearGradient>
<linearGradient id="paint8_linear_396_226" x1="33.1228" y1="16.2305" x2="28.8367" y2="33.078" gradientUnits="userSpaceOnUse">
<stop stop-color="#2D271F"/>
<stop offset="0.08" stop-color="#393229"/>
<stop offset="0.32" stop-color="#574E45"/>
<stop offset="0.56" stop-color="#6D6259"/>
<stop offset="0.79" stop-color="#7A6E64"/>
<stop offset="1" stop-color="#7F7369"/>
</linearGradient>
<linearGradient id="paint9_linear_396_226" x1="1.24219" y1="23.2559" x2="24.8056" y2="23.2559" gradientUnits="userSpaceOnUse">
<stop stop-color="#2D271F"/>
<stop offset="0.29" stop-color="#484037"/>
<stop offset="0.76" stop-color="#6F645B"/>
<stop offset="1" stop-color="#7F7369"/>
</linearGradient>
<radialGradient id="paint10_radial_396_226" cx="0" cy="0" r="1" gradientUnits="userSpaceOnUse" gradientTransform="translate(16.7176 18.3196) scale(1.94612)">
<stop stop-color="#FDFEFA"/>
<stop offset="0.47" stop-color="#FBFAE9"/>
<stop offset="1" stop-color="#FAF8DA"/>
</radialGradient>
<radialGradient id="paint11_radial_396_226" cx="0" cy="0" r="1" gradientUnits="userSpaceOnUse" gradientTransform="translate(20.4469 17.9151) scale(2.13262)">
<stop stop-color="#FDFEFA"/>
<stop offset="0.47" stop-color="#FBFAE9"/>
<stop offset="1" stop-color="#FAF8DA"/>
</radialGradient>
<linearGradient id="paint12_linear_396_226" x1="18.2898" y1="17.9361" x2="15.9149" y2="16.2845" gradientUnits="userSpaceOnUse">
<stop stop-color="#2D271F"/>
<stop offset="0.29" stop-color="#484037"/>
<stop offset="0.76" stop-color="#6F645B"/>
<stop offset="1" stop-color="#7F7369"/>
</linearGradient>
<linearGradient id="paint13_linear_396_226" x1="18.3284" y1="17.3276" x2="21.7212" y2="17.3276" gradientUnits="userSpaceOnUse">
<stop stop-color="#2D271F"/>
<stop offset="0.29" stop-color="#484037"/>
<stop offset="0.76" stop-color="#6F645B"/>
<stop offset="1" stop-color="#7F7369"/>
</linearGradient>
<clipPath id="clip0_396_226">
<rect width="63" height="50.7516" fill="white"/>
</clipPath>
</defs>
</svg>
